# xmcd
#
# Track frame offsets: 
#        150
#        16757
#        34882
#        53220
#        69757
#        87772
#        103062
#        117992
#        131760
#        149525
#        167497
#        184215
#        199937
#        217852
#
# Disc length: 3121 seconds
#
# Revision: 1
# Processed by: cddbd v1.5.1PL0 Copyright (c) Steve Scherf et al.
# Submitted via: ExactAudioCopy v0.95b1
#
DISCID=c20c2f0e
DTITLE=Demis Roussos - Exitos de siempre y para siempre
DYEAR=2000
DGENRE=Ballad
TTITLE0=Forever and ever
TTITLE1=My reason
TTITLE2=Lovelly sunny days
TTITLE3=Shadows
TTITLE4=Mara
TTITLE5=Lovely lady from Arcadia
TTITLE6=When I'm a kid
TTITLE7=Someday, somewhere
TTITLE8=Good bye, my love good bye
TTITLE9=My friend the wind
TTITLE10=My only fascination
TTITLE11=Rebbeca
TTITLE12=We pretend
TTITLE13=Velvet mornings
EXTD=
EXTT0=
EXTT1=
EXTT2=
EXTT3=
EXTT4=
EXTT5=
EXTT6=
EXTT7=
EXTT8=
EXTT9=
EXTT10=
EXTT11=
EXTT12=
EXTT13=
PLAYORDER=
